<svg id="card" viewBox="0 0 150 150" fill="none" xmlns="http://www.w3.org/2000/svg">
<rect width="150" height="150" rx="10" fill="currentColor"/>
<rect x="2.5" y="2.5" width="145" height="145" rx="7.5" stroke="black" stroke-opacity="0.5" stroke-width="5"/>
<g opacity="0.2">
<path d="M55 33C55 41.8366 47.8366 49 39 49C30.1634 49 23 41.8366 23 33C23 24.1634 30.1634 17 39 17C47.8366 17 55 24.1634 55 33Z" fill="black"/>
<path d="M127 33C127 41.8366 119.837 49 111 49C102.163 49 95 41.8366 95 33C95 24.1634 102.163 17 111 17C119.837 17 127 24.1634 127 33Z" fill="black"/>
<path d="M55 75C55 83.8366 47.8366 91 39 91C30.1634 91 23 83.8366 23 75C23 66.1634 30.1634 59 39 59C47.8366 59 55 66.1634 55 75Z" fill="black"/>
<path d="M127 75C127 83.8366 119.837 91 111 91C102.163 91 95 83.8366 95 75C95 66.1634 102.163 59 111 59C119.837 59 127 66.1634 127 75Z" fill="black"/>
<path d="M55 117C55 125.837 47.8366 133 39 133C30.1634 133 23 125.837 23 117C23 108.163 30.1634 101 39 101C47.8366 101 55 108.163 55 117Z" fill="black"/>
<path d="M127 117C127 125.837 119.837 133 111 133C102.163 133 95 125.837 95 117C95 108.163 102.163 101 111 101C119.837 101 127 108.163 127 117Z" fill="black"/>
</g>
</svg>
